<?xml version="1.0" encoding="utf-8"?>
<!-- Generator: Adobe Illustrator 18.0.0, SVG Export Plug-In . SVG Version: 6.00 Build 0)  -->
<!DOCTYPE svg PUBLIC "-//W3C//DTD SVG 1.1//EN" "http://www.w3.org/Graphics/SVG/1.1/DTD/svg11.dtd">
<svg version="1.1" id="图层_1" xmlns="http://www.w3.org/2000/svg" xmlns:xlink="http://www.w3.org/1999/xlink" x="0px" y="0px"
	 viewBox="0 0 612 792" enable-background="new 0 0 612 792" xml:space="preserve">
<g>
	<path fill-rule="evenodd" clip-rule="evenodd" fill="#FFFFFF" d="M-196.7-13h1481.3c45.5,0,82.3,26.2,82.3,58.5
		c0,32.3-36.8,58.5-82.3,58.5H-196.7c-45.5,0-82.3-26.2-82.3-58.5C-279,13.2-242.2-13-196.7-13L-196.7-13z"/>
	<path fill-rule="evenodd" clip-rule="evenodd" fill="#FFFFFF" d="M-196.7,338.1h1481.3c45.5,0,82.3,26.2,82.3,58.5
		s-36.8,58.5-82.3,58.5H-196.7c-45.5,0-82.3-26.2-82.3-58.5S-242.2,338.1-196.7,338.1L-196.7,338.1z"/>
	<path fill-rule="evenodd" clip-rule="evenodd" fill="#FFFFFF" d="M-196.7,689.2h1481.3c45.5,0,82.3,26.2,82.3,58.5
		c0,32.3-36.8,58.5-82.3,58.5H-196.7c-45.5,0-82.3-26.2-82.3-58.5C-279,715.4-242.2,689.2-196.7,689.2L-196.7,689.2z"/>
</g>
</svg>
